<svg version="1.0" xmlns="http://www.w3.org/2000/svg"
     width="64" height="32" viewBox="0 0 1280.000000 640.000000"
     preserveAspectRatio="xMidYMid meet" class="rc-logo me-2">
    <g transform="translate(0.000000,640.000000) scale(0.100000,-0.100000)"
       fill="#7ecfff" stroke="none">
        <path d="M12526 6334 c-13 -13 -16 -44 -16 -187 0 -216 -26 -335 -86 -389 -11
-9 -1102 -693 -2425 -1521 -2316 -1448 -2408 -1505 -2465 -1511 -176 -22 -430
-100 -924 -284 -629 -234 -1108 -371 -2345 -667 -338 -81 -373 -85 -424 -48
-38 28 -78 91 -283 448 -329 572 -430 755 -425 768 3 7 177 104 388 215 211
110 393 208 404 216 18 14 14 15 -54 16 l-74 0 -979 -422 c-751 -324 -974
-424 -956 -429 62 -18 111 -7 371 81 146 49 273 90 281 90 8 0 17 -8 20 -17 3
-10 84 -295 181 -633 97 -338 180 -619 185 -624 12 -12 401 9 595 34 697 87
1454 174 1461 167 4 -4 5 -10 1 -13 -12 -13 -4313 -1493 -4338 -1494 -38 0
-183 101 -349 244 -79 69 -164 136 -187 148 l-43 23 -22 -22 c-20 -21 -21 -24
-7 -65 21 -66 103 -181 172 -243 116 -103 254 -155 415 -155 77 0 102 6 281
64 108 36 988 320 1956 631 968 312 2051 661 2406 775 l646 209 214 16 c149
11 457 19 1009 25 794 9 927 12 1115 31 516 50 1019 224 1148 396 54 72 26
148 -80 219 -150 100 -477 203 -853 269 -85 15 -165 29 -178 31 -13 3 -22 10
-20 17 3 7 1005 684 2229 1504 1223 821 2238 1508 2255 1526 32 35 74 131 74
170 0 38 -64 211 -100 271 -41 67 -111 136 -139 136 -11 0 -27 -7 -35 -16z"/>
    </g>
</svg>